<svg xmlns="http://www.w3.org/2000/svg" viewBox="0 0 24 24" fill="none">
  <rect width="24" height="24" rx="6" fill="#2563EB"/>
  <path d="M5 16l1.2-4.2A2 2 0 0 1 8.1 10.3h7.8a2 2 0 0 1 1.9 1.5L19 16" stroke="#ffffff" stroke-width="1.6" stroke-linecap="round" stroke-linejoin="round"/>
  <path d="M4.5 16h15a1 1 0 0 1 1 1v1a1 1 0 0 1-1 1h-15a1 1 0 0 1-1-1v-1a1 1 0 0 1 1-1z" fill="#ffffff"/>
  <circle cx="8" cy="18" r="1.3" fill="#2563EB"/>
  <circle cx="16" cy="18" r="1.3" fill="#2563EB"/>
  <path d="M7 13.2h10" stroke="#2563EB" stroke-width="1.2" stroke-linecap="round"/>
</svg>
